<?xml version="1.0" encoding="UTF-8"?>
<svg id="Vrstva_1" viewBox="0 0 478.26 169.9">
    <defs>
        <style>
          

            .cls-1 {
                fill: #df1c12;
            }
        </style>
    </defs>
    <path class="cls-1"
        d="m64.71,66.83c-3.9.44-7.65,1.53-11.4,2.61-4.57,1.31-9.1,2.74-13.53,4.5-4.15,1.64-7.66,4.14-10.8,7.26-5.54,5.5-9.26,12.16-12.44,19.18-1.69,3.75-3.35,7.52-5.52,11.02-.54.31-1.1.34-1.67.09-2.89-2.86-5.78-5.7-8.66-8.57-.73-.73-.83-1.6-.52-2.59,1.01-3.2,2.29-6.28,3.81-9.26,3.64-7.14,7.13-14.36,11.66-21.01,5.42-7.97,12.89-13.3,21.77-16.82,4.62-1.83,9.41-3.02,14.25-4.04,3.95-.83,7.94-1.44,11.94-1.94.47-.24,1,.04,1.47-.2.55-.02,1.11-.04,1.66-.06.65-.3,1.37.05,2.03-.21.75-.03,1.49-.05,2.24-.08.69-.23,1.41-.05,2.11-.11.53-.04,1.08.09,1.6-.09.66-.03,1.31-.06,1.97-.1,1.84-.21,3.68-.08,5.52-.08,5.3-.02,10.59,0,15.89,0,.96,0,1.92,0,2.88,0,.99-.05,1.99.11,2.98-.1.66-.03,1.31-.06,1.97-.1.44-.16.89-.06,1.33-.09.51-.04,1.03.1,1.53-.1,7.59-.42,14.74-2.68,21.84-5.17,7.22-2.54,14.13-5.77,20.88-9.34,5.62-2.97,11.22-5.97,16.84-8.94,6.43-3.41,12.76-7.02,19.32-10.15,8.76-4.18,17.78-7.8,27.29-9.97,3.45-.79,6.96-1.23,10.47-1.66.47-.22,1,.04,1.47-.2.37-.03.73-.05,1.1-.08.52-.2,1.06-.06,1.59-.1.52-.04,1.05.1,1.56-.1.47-.03.94-.06,1.41-.09,1.61-.14,3.22-.15,4.84,0,.65.09,1.3.19,1.95.28.59-.14,1.17-.16,1.76,0,5.48.75,10.9,1.81,16.24,3.21,5.11,1.33,10.14,2.99,15.05,4.99,10.37,4.23,20.77,8.37,31.13,12.6,7.51,3.06,15,6.2,22.44,9.46,11.3,4.95,22.45,10.3,34.3,13.9,4.49,1.36,9,2.61,13.6,3.53,1.14.23,2.32.25,3.48.37.46.27,1-.03,1.46.21.68-.14,1.26.49,1.95.26.67-.12,1.34-.14,2.01.01,1.89,0,3.77,0,5.66,0,.48-.13.96-.12,1.44,0,6.73-.58,13.21-2.13,19.46-4.72,3.1-1.28,6.08-2.94,9.46-3.49.68-.17,1.37-.17,2.05,0,1.55.17,2.6,1.25,3.65,2.18,3.26,2.86,6.39,5.85,9.21,9.17.9,1.06.73,2.45-.53,3.34-2.48,1.73-5.34,2.64-8.15,3.68-5.05,1.86-10.05,3.85-15.1,5.69-4.08,1.49-8.27,2.59-12.57,3.26-.88.14-1.76.23-2.64.3-.95.14-1.91.16-2.86,0-5.48-.47-10.71-2.06-15.95-3.61-9.91-2.93-19.58-6.56-29.16-10.38-4.59-1.83-9-4.09-13.57-6-7.31-3.06-14.61-6.15-22.02-8.97-6.55-2.49-13-5.21-19.45-7.95-5.98-2.54-12.09-4.76-18.25-6.83-2.89-.97-5.76-1.98-8.66-2.89-2.83-.89-5.71-1.53-8.69-1.67-.54-.02-1.08-.21-1.62-.32-.47-.23-1,.03-1.47-.2-.74-.02-1.48-.05-2.23-.07-.46-.27-1,.02-1.46-.21-.65-.03-1.31-.06-1.96-.09-1.9-.16-3.8-.17-5.7,0-.56.03-1.12.06-1.68.09-.44.17-.91.06-1.36.09-.6.05-1.2-.11-1.79.1-.65.03-1.3.06-1.95.09-.66.26-1.38-.09-2.03.21-8.42.52-16.67,1.75-24.47,5.28-5.44,2.46-10.89,4.89-16.29,7.44-5.29,2.5-10.53,5.1-15.72,7.79-9.15,4.75-18.18,9.75-27.37,14.43-7.48,3.81-15.46,6.33-23.56,8.46-2.28.6-4.57,1.2-6.96,1.25-.47.23-1-.03-1.47.2-.46.03-.92.06-1.37.09" />
    <path class="cls-1"
        d="m237.67,150.59l1.97.1c.52.19,1.05.05,1.58.09.63,0,1.26,0,1.89,0,.74,0,1.48,0,2.22,0,.75.05,1.51-.1,2.26.09,2.93,0,5.86,0,8.79,0,.93-.19,1.87-.04,2.8-.09.76,0,1.52,0,2.27,0,.74,0,1.49,0,2.23,0,.88-.05,1.77.12,2.65-.1.94-.03,1.88-.06,2.82-.09.82-.2,1.65-.04,2.47-.09.89-.06,1.78.12,2.67-.1.75-.03,1.49-.06,2.24-.09.61-.19,1.23-.05,1.85-.09.53-.04,1.06.09,1.58-.09l2.24-.07c.55-.29,1.18.04,1.74-.22.46-.03.92-.06,1.37-.09.47-.21,1.01.04,1.48-.19,4.37-.31,8.7-.86,13.04-1.43,2.72-.36,5.47-.54,8.19-.9,3.17-.41,6.31-1.03,9.48-1.37,2.86-.3,5.7-.72,8.53-1.18,4.54-.74,9.05-1.63,13.54-2.65,4.67-1.07,9.4-1.92,14.06-3.05,4.09-.99,8.13-2.18,12.16-3.38,7.03-2.09,14.01-4.38,20.93-6.81,6.7-2.35,13.3-4.93,19.76-7.9,7.13-3.28,14.13-6.8,21-10.57,4.49-2.46,8.99-4.94,13.05-8.08,2.14-1.65,4.12-3.52,6.2-5.27,2.86-2.42,5.83-4.72,8.39-7.49,3.06-3.31,5.31-7.15,7.41-11.1,1.87-3.5,2.59-7.28,2.85-11.18.31-.55-.03-1.18.22-1.74.67-5.36-1.56-9.71-4.59-13.9-2.92-4.03-7-6.36-11.27-8.51-5.34-2.69-10.66-5.48-16.34-7.41-3.57-1.22-7.21-2.23-10.79-3.4-1.17-.38-2.31-.84-2.97-2.11-.83-1.6-.5-2.65,1.2-3.31.36-.14.71-.21,1.07-.29.67-.14,1.33-.15,2,0,8.35,1.96,16.37,4.86,24.14,8.44,5.41,2.49,10.68,5.28,15.35,8.99,4.99,3.97,9.83,8.18,12.59,14.15,1.23,2.65,1.93,5.45,2.16,8.4.63,7.88-1.58,14.98-5.52,21.71-2.48,4.24-5.23,8.26-8.41,11.99-3.12,3.66-6.6,6.95-10.26,10.08-3.55,3.04-7.22,5.92-10.87,8.83-4.4,3.49-9.13,6.46-14.03,9.18-6.38,3.55-12.8,7.03-19.37,10.24-4.69,2.29-9.56,4.14-14.4,6.07-7.26,2.9-14.65,5.48-22.12,7.79-7.01,2.17-14.06,4.2-21.19,5.98-5.87,1.47-11.85,2.35-17.75,3.63-4.16.91-8.38,1.46-12.56,2.21-4.89.87-9.8,1.57-14.71,2.31-3.86.59-7.71,1.17-11.58,1.68-1.72.22-3.46.24-5.19.35-.56.25-1.19-.08-1.74.22-.84.03-1.69-.05-2.5.26-.59-.15-1.17-.18-1.76.02-.75.03-1.49.05-2.24.08-.45.17-.92.06-1.38.09-.68.06-1.38-.13-2.05.11l-1.97.08c-.56.19-1.13.05-1.69.09-.64,0-1.29,0-1.93,0-.78.05-1.58-.11-2.36.1-.85.03-1.69.06-2.54.09-.86.2-1.74.04-2.61.09-1.42,0-2.84,0-4.27,0-3.99,0-7.98,0-11.97,0-.77,0-1.55,0-2.32,0-.81.05-1.63-.11-2.44.11-.84-.1-1.67-.19-2.51-.29-.68-.22-1.38-.05-2.07-.1-.55-.04-1.1.09-1.64-.1-4.55-.11-9.08-.46-13.6-.92-.46-.27-1,.02-1.46-.22-4.66-.24-9.27-.91-13.9-1.43-9.31-1.05-18.23-3.65-27.15-6.34-7.13-2.15-14.25-4.37-20.86-7.9-5.24-2.8-10.26-5.93-14.67-9.97-3.5-3.2-6.97-6.39-9.59-10.41-2.15-3.31-3.46-6.85-3.58-10.81-.14-1.53-.14-3.05,0-4.58.02-6.15,2.45-11.53,5.36-16.76,1.97-3.54,4.16-6.93,6.7-10.08,1.19-1.47,2.52-2.9,4.48-3.43,1.76-.48,3.69.57,4.15,2.31.18.69.1,1.29-.4,1.95-2.99,3.99-5.68,8.17-6.93,13.09-.68,2.65-1.13,5.35-1.16,8.1-.17,1.14-.16,2.28,0,3.43.03,4.05,2.02,7.2,4.45,10.24,5.75,7.18,13.79,10.75,21.95,14.12,7.06,2.92,14.48,4.7,21.87,6.49,3.76.91,7.64,1.35,11.49,1.8,4.67.55,9.31,1.26,14.02,1.39.52.01.94.49,1.49.25.58-.13,1.16-.15,1.74,0,.46.03.93.06,1.39.09.5.19,1.02.05,1.53.1.44.03.9-.08,1.33.1,2.24.54,4.53.21,6.79.38.61.2,1.24.05,1.86.1.72.05,1.44-.1,2.15.09Z" />
    <path class="cls-1"
        d="m285.33,100.42c-6.04-.39-11.93-1.64-17.41-4.16-3.2-1.47-6.32-3.37-7.94-6.87-2.11-4.58,1.15-10.67,6.13-11.45,1.22-.19,2.38-.23,3.48.3,1.29.62,1.86,1.7,1.86,3.15,0,3.52,1.78,5.81,5.11,7.07,2.57.97,5.24,1.32,7.93,1.65.67-.13,1.34-.15,2.02.01.75.03,1.51.06,2.26.09,1.89.16,3.79.16,5.68,0,.66-.03,1.32-.06,1.98-.09.57-.15,1.15-.14,1.73,0,2.52-.33,5.06-.36,7.59-.72,2.38-.34,4.74-.7,7.1-1.16,3.84-.75,7.4-2.25,10.95-3.79,2.92-1.27,5.79-2.65,8.16-4.9,1.47-1.4,1.94-3.21,2.57-4.98.18-.86.19-1.72,0-2.58-.5-1.57-1.73-2.42-3.07-3.19-1.14-.65-2.57-1.12-2.33-2.87.23-1.65,1.39-2.39,2.87-2.8.27-.07.52-.17.79-.26.77-.17,1.54-.17,2.31,0,2.35.65,4.67,1.37,6.8,2.59,1.99,1.14,4.05,2.24,5.34,4.21,2.28,3.47,1.63,6.68-.86,10.17-4.41,6.19-10.44,10.15-17.41,13-5.19,2.12-10.49,3.83-15.91,5.17-3.5.87-7.07,1.42-10.67,1.83-1.12.13-2.23.24-3.35.3-.56.26-1.19-.07-1.75.22-.46.02-.93.04-1.39.07-.54.19-1.1.06-1.65.1" />
</svg>